<svg width="24" height="24" viewBox="0 0 24 24" fill="none" xmlns="http://www.w3.org/2000/svg">
<g clip-path="url(#clip0_1631_24837)">
<path d="M15.0792 10.9968L16.9057 8.00604L21.8292 15.4055L21.8315 16.8256L21.8155 7.05389C21.8038 6.81503 21.6724 6.59653 21.4627 6.46766L12.5986 1.54777C12.3914 1.44939 12.1283 1.45053 11.9213 1.55088C11.8934 1.56433 11.867 1.57906 11.842 1.59512L11.8111 1.61386L3.20719 6.42485L3.17384 6.43948C3.13091 6.45851 3.08746 6.48274 3.04679 6.51086C2.88362 6.62372 2.77531 6.79066 2.74027 6.97791C2.735 7.00629 2.7311 7.03516 2.72931 7.06437L2.74283 15.0273L7.32876 8.16863C7.90618 7.25919 9.16411 6.96625 10.3319 6.98217L11.7025 7.01707L3.62672 19.514L4.57869 20.0428L12.7511 7.02977L16.3634 7.01712L8.21203 20.3585L11.6089 22.2438L12.0148 22.4691C12.1865 22.5364 12.3889 22.5398 12.562 22.4794L21.5506 17.4531L19.8321 18.414L15.0792 10.9968ZM15.776 20.6821L12.3451 15.4863L14.4395 12.057L18.9454 18.9099L15.776 20.6821Z" fill="#2D374B"/>
<path d="M12.3453 15.4861L15.7762 20.682L18.9456 18.9097L14.4397 12.0568L12.3453 15.4861Z" fill="#28A0F0"/>
<path d="M21.8309 16.826L21.8285 15.4059L16.9051 8.00647L15.0785 10.9972L19.8314 18.4144L21.5499 17.4535C21.7184 17.3214 21.8204 17.1275 21.8311 16.9184L21.8309 16.826Z" fill="#28A0F0"/>
<path d="M1.20001 18.1647L3.62677 19.514L11.7025 7.01714L10.3319 6.98224C9.1641 6.96632 7.90613 7.25927 7.32876 8.1687L2.74283 15.0274L1.20001 17.3147V18.1647Z" fill="white"/>
<path d="M16.3632 7.01697L12.7509 7.02962L4.57849 20.0427L7.43502 21.6296L8.21183 20.3584L16.3632 7.01697Z" fill="white"/>
<path d="M23.3539 6.99904C23.3236 6.27009 22.9146 5.60278 22.2739 5.21428L13.2937 0.231115C12.6599 -0.0768076 11.8682 -0.0772031 11.2333 0.230917C11.1582 0.267449 2.5002 5.1126 2.5002 5.1126C2.38037 5.16806 2.26495 5.23411 2.15639 5.3091C1.58445 5.70462 1.23582 6.31928 1.20001 6.99454V17.3146L2.74283 15.0272L2.72935 7.06429C2.73115 7.03518 2.73494 7.0065 2.74032 6.97823C2.77521 6.79087 2.88361 6.62374 3.04683 6.51078C3.08756 6.48266 11.8935 1.56424 11.9214 1.55075C12.1284 1.45045 12.3915 1.44926 12.5987 1.54763L21.4628 6.46743C21.6725 6.5963 21.8039 6.8148 21.8156 7.05366V16.9178C21.8049 17.1269 21.7192 17.3208 21.5506 17.4529L19.8321 18.4138L18.9454 18.9097L15.7761 20.682L12.562 22.4792C12.3889 22.5396 12.1865 22.5362 12.0148 22.4688L8.21208 20.3584L7.43526 21.6297L10.8527 23.5282C10.9657 23.5902 11.0664 23.6452 11.149 23.69C11.2769 23.7592 11.3641 23.8055 11.3949 23.8199C11.6378 23.9338 11.9873 24 12.3022 24C12.5909 24 12.8725 23.9488 13.1389 23.8481L22.4744 18.6313C23.0103 18.2307 23.3255 17.6266 23.3539 16.9722V6.99904Z" fill="#96BEDC"/>
</g>
<defs>
<clipPath id="clip0_1631_24837">
<rect width="24" height="24" fill="white"/>
</clipPath>
</defs>
</svg>
