<svg xmlns="http://www.w3.org/2000/svg" version="1.1" width="500px" height="500px" style="shape-rendering:geometricPrecision; text-rendering:geometricPrecision; image-rendering:optimizeQuality; fill-rule:evenodd; clip-rule:evenodd" xmlns:xlink="http://www.w3.org/1999/xlink">
<g><path style="opacity:0.973" fill="#efb90a" d="M 246.5,-0.5 C 248.5,-0.5 250.5,-0.5 252.5,-0.5C 294.94,24.5591 337.606,49.3924 380.5,74C 366.287,83.2736 351.62,91.7736 336.5,99.5C 307.375,83.4363 278.375,67.103 249.5,50.5C 220.625,67.103 191.625,83.4363 162.5,99.5C 147.38,91.7736 132.713,83.2736 118.5,74C 161.394,49.3924 204.06,24.5591 246.5,-0.5 Z"/></g>
<g><path style="opacity:0.971" fill="#efb90a" d="M 75.5,98.5 C 90.5043,106.666 105.171,115.333 119.5,124.5C 105.866,133.322 91.8662,141.656 77.5,149.5C 76.5005,166.153 76.1672,182.82 76.5,199.5C 61.78,192.304 47.4467,184.304 33.5,175.5C 32.3337,158.176 32.167,140.843 33,123.5C 47.3362,115.303 61.5028,106.97 75.5,98.5 Z"/></g>
<g><path style="opacity:0.955" fill="#efb90a" d="M 248.5,98.5 C 263.609,106.891 278.609,115.557 293.5,124.5C 279.121,133.356 264.454,141.689 249.5,149.5C 234.546,141.689 219.879,133.356 205.5,124.5C 220.063,116.059 234.396,107.392 248.5,98.5 Z"/></g>
<g><path style="opacity:0.971" fill="#efb90a" d="M 422.5,98.5 C 437.054,106.695 451.554,115.028 466,123.5C 466.833,140.843 466.666,158.176 465.5,175.5C 451.553,184.304 437.22,192.304 422.5,199.5C 422.833,182.82 422.499,166.153 421.5,149.5C 407.134,141.656 393.134,133.322 379.5,124.5C 393.695,115.571 408.028,106.904 422.5,98.5 Z"/></g>
<g><path style="opacity:0.985" fill="#efb90a" d="M 162.5,148.5 C 191.309,165.408 220.309,182.074 249.5,198.5C 278.579,182.212 307.412,165.546 336,148.5C 350.418,156.96 364.918,165.293 379.5,173.5C 380.833,190.833 380.833,208.167 379.5,225.5C 351.003,241.581 322.67,257.914 294.5,274.5C 293.833,308.167 293.167,341.833 292.5,375.5C 278.331,384.086 263.997,392.419 249.5,400.5C 235.003,392.419 220.669,384.086 206.5,375.5C 205.833,341.833 205.167,308.167 204.5,274.5C 176.33,257.914 147.997,241.581 119.5,225.5C 118.167,208.167 118.167,190.833 119.5,173.5C 134.06,165.392 148.393,157.059 162.5,148.5 Z"/></g>
<g><path style="opacity:0.978" fill="#efb90a" d="M 32.5,224.5 C 47.22,231.696 61.5533,239.696 75.5,248.5C 76.1667,282.167 76.8333,315.833 77.5,349.5C 105.67,366.086 134.003,382.419 162.5,398.5C 163.666,415.824 163.833,433.157 163,450.5C 119.503,425.753 76.1699,400.753 33,375.5C 32.5,325.168 32.3333,274.834 32.5,224.5 Z"/></g>
<g><path style="opacity:0.978" fill="#efb90a" d="M 463.5,224.5 C 464.5,224.5 465.5,224.5 466.5,224.5C 466.667,274.834 466.5,325.168 466,375.5C 422.83,400.753 379.497,425.753 336,450.5C 335.167,433.157 335.334,415.824 336.5,398.5C 364.997,382.419 393.33,366.086 421.5,349.5C 422.167,315.833 422.833,282.167 423.5,248.5C 437.135,240.836 450.468,232.836 463.5,224.5 Z"/></g>
<g><path style="opacity:0.95" fill="#efb90a" d="M 118.5,274.5 C 133.39,281.948 148.056,289.948 162.5,298.5C 163.833,315.833 163.833,333.167 162.5,350.5C 148.003,342.419 133.669,334.086 119.5,325.5C 118.501,308.513 118.167,291.513 118.5,274.5 Z"/></g>
<g><path style="opacity:0.951" fill="#efb90a" d="M 377.5,274.5 C 378.5,274.5 379.5,274.5 380.5,274.5C 380.833,291.513 380.499,308.513 379.5,325.5C 364.918,333.707 350.418,342.04 336,350.5C 335.167,333.157 335.334,315.824 336.5,298.5C 350.394,290.726 364.061,282.726 377.5,274.5 Z"/></g>
<g><path style="opacity:0.966" fill="#efb90a" d="M 252.5,499.5 C 250.5,499.5 248.5,499.5 246.5,499.5C 233.431,490.965 219.931,482.965 206,475.5C 205.5,458.503 205.333,441.503 205.5,424.5C 220.382,432.035 235.049,440.035 249.5,448.5C 263.951,440.035 278.618,432.035 293.5,424.5C 293.667,441.503 293.5,458.503 293,475.5C 279.069,482.965 265.569,490.965 252.5,499.5 Z"/></g>
</svg>
