<svg width="24" height="24" viewBox="0 0 24 24" fill="none" xmlns="http://www.w3.org/2000/svg">
<g clip-path="url(#clip0_1631_24746)">
<mask id="mask0_1631_24746" style="mask-type:luminance" maskUnits="userSpaceOnUse" x="0" y="0" width="24" height="24">
<path d="M12.0002 23.7557C18.4927 23.7557 23.7559 18.4925 23.7559 12C23.7559 5.50755 18.4927 0.244354 12.0002 0.244354C5.50771 0.244354 0.244507 5.50755 0.244507 12C0.244507 18.4925 5.50771 23.7557 12.0002 23.7557Z" fill="white"/>
</mask>
<g mask="url(#mask0_1631_24746)">
<path d="M24.8692 -0.868774H-0.868408V24.8688H24.8692V-0.868774Z" fill="url(#paint0_linear_1631_24746)"/>
</g>
<g clip-path="url(#clip1_1631_24746)">
<path d="M14.9807 14.506L17.8497 12.8362C18.0015 12.7477 18.0959 12.5831 18.0959 12.4063V9.06601C18.0959 8.88943 18.0015 8.72452 17.8497 8.6361L14.9807 6.96624C14.829 6.87782 14.6402 6.87808 14.4884 6.96624L11.6194 8.6361C11.4676 8.72452 11.3732 8.88918 11.3732 9.06601V15.0347L9.36145 16.2054L7.34965 15.0347V12.6925L9.36145 11.5218L10.6886 12.294V10.7229L9.60759 10.0939C9.533 10.0506 9.44787 10.0277 9.36145 10.0277C9.27503 10.0277 9.1899 10.0506 9.11531 10.0939L6.24602 11.764C6.09427 11.8524 5.99988 12.0171 5.99988 12.1939V15.5339C5.99988 15.7105 6.09427 15.8754 6.24602 15.9638L9.11505 17.6339C9.2668 17.7221 9.45533 17.7221 9.60733 17.6339L12.4764 15.964C12.6281 15.8756 12.7225 15.7107 12.7225 15.5341V9.56542L12.7588 9.54441L14.7343 8.3947L16.7461 9.56568V11.9076L14.7343 13.0786L13.4092 12.3075V13.8785L14.4882 14.5068C14.6399 14.595 14.8287 14.595 14.9804 14.5068L14.9807 14.506Z" fill="white"/>
</g>
</g>
<defs>
<linearGradient id="paint0_linear_1631_24746" x1="-5.57193" y1="1.24659" x2="20.998" y2="17.5061" gradientUnits="userSpaceOnUse">
<stop stop-color="#A229C5"/>
<stop offset="1" stop-color="#7B3FE4"/>
</linearGradient>
<clipPath id="clip0_1631_24746">
<rect width="24" height="24" fill="white"/>
</clipPath>
<clipPath id="clip1_1631_24746">
<rect width="12" height="12" fill="white" transform="translate(5.99988 6.30002)"/>
</clipPath>
</defs>
</svg>
